<mxfile host="app.diagrams.net" modified="2023-07-04T01:30:20.246Z" agent="Mozilla/5.0 (X11; Linux x86_64; rv:108.0) Gecko/20100101 Firefox/108.0" version="21.5.2" etag="FAjAtwyvXlEfdkzrfSOU" type="github">
  <diagram name="Page-1" id="tPBHla4C_2YBdxBPzFf0">
    <mxGraphModel>
      <root>
        <mxCell id="0" />
        <mxCell id="1" parent="0" />
      </root>
    </mxGraphModel>
  </diagram>
</mxfile>
